<svg width="138" height="165" viewBox="0 0 138 165" fill="none" xmlns="http://www.w3.org/2000/svg">
<g id="Frame 5">
<g id="Group 8" opacity="0.4">
<g id="Group 3" filter="url(#filter0_f_1_175)">
<path id="Vector" d="M103.289 56.4286C96.2542 56.4286 90.5314 62.1514 90.5314 69.1857V82.7599C75.8363 84.7527 64.4743 97.3817 64.4743 112.614H72.6171C72.6171 100.491 82.4798 90.6286 94.6029 90.6286H98.6743V69.1857C98.6743 66.6413 100.744 64.5714 103.289 64.5714C105.833 64.5714 107.903 66.6413 107.903 69.1857V103.929C107.903 125.63 90.2475 143.286 68.5457 143.286C46.8439 143.286 29.1886 125.63 29.1886 103.929V60.5C29.1886 57.9556 31.2585 55.8857 33.8029 55.8857C36.3472 55.8857 38.4171 57.9556 38.4171 60.5V86.5571H46.56V34.4429C46.56 31.8985 48.6299 29.8286 51.1743 29.8286C53.7187 29.8286 55.7886 31.8985 55.7886 34.4429V77.8714H63.9314V25.7571C63.9314 23.2128 66.0013 21.1429 68.5457 21.1429C71.0901 21.1429 73.16 23.2128 73.16 25.7571V77.8714H81.3029V34.4429C81.3029 31.8985 83.3728 29.8286 85.9171 29.8286C88.4615 29.8286 90.5314 31.8985 90.5314 34.4429V51.8143H98.6743V34.4429C98.6743 27.4085 92.9515 21.6857 85.9171 21.6857C84.1485 21.6857 82.4629 22.0483 80.9305 22.7014C79.5576 17.1382 74.5269 13 68.5457 13C62.5645 13 57.5339 17.1382 56.161 22.7014C54.6285 22.0478 52.9429 21.6857 51.1743 21.6857C44.1399 21.6857 38.4171 27.4085 38.4171 34.4429V48.6098C36.9851 48.0523 35.4298 47.7429 33.8029 47.7429C26.7685 47.7429 21.0457 53.4657 21.0457 60.5V103.929C21.0457 130.12 42.3539 151.429 68.5457 151.429C94.7375 151.429 116.046 130.12 116.046 103.929V69.1857C116.046 62.1514 110.323 56.4286 103.289 56.4286Z" fill="#B3F1FF"/>
<path id="Vector_2" d="M85.9171 108.543H94.6029V116.686H85.9171V108.543Z" fill="#B3F1FF"/>
</g>
<g id="Group 6">
<path id="Vector_3" d="M103.289 56.4286C96.2542 56.4286 90.5314 62.1514 90.5314 69.1857V82.7599C75.8363 84.7527 64.4743 97.3817 64.4743 112.614H72.6171C72.6171 100.491 82.4798 90.6286 94.6029 90.6286H98.6743V69.1857C98.6743 66.6413 100.744 64.5714 103.289 64.5714C105.833 64.5714 107.903 66.6413 107.903 69.1857V103.929C107.903 125.63 90.2475 143.286 68.5457 143.286C46.8439 143.286 29.1886 125.63 29.1886 103.929V60.5C29.1886 57.9556 31.2585 55.8857 33.8029 55.8857C36.3472 55.8857 38.4171 57.9556 38.4171 60.5V86.5571H46.56V34.4429C46.56 31.8985 48.6299 29.8286 51.1743 29.8286C53.7187 29.8286 55.7886 31.8985 55.7886 34.4429V77.8714H63.9314V25.7571C63.9314 23.2128 66.0013 21.1429 68.5457 21.1429C71.0901 21.1429 73.16 23.2128 73.16 25.7571V77.8714H81.3029V34.4429C81.3029 31.8985 83.3728 29.8286 85.9171 29.8286C88.4615 29.8286 90.5314 31.8985 90.5314 34.4429V51.8143H98.6743V34.4429C98.6743 27.4085 92.9515 21.6857 85.9171 21.6857C84.1485 21.6857 82.4629 22.0483 80.9305 22.7014C79.5576 17.1382 74.5269 13 68.5457 13C62.5645 13 57.5339 17.1382 56.161 22.7014C54.6285 22.0478 52.9429 21.6857 51.1743 21.6857C44.1399 21.6857 38.4171 27.4085 38.4171 34.4429V48.6098C36.9851 48.0523 35.4298 47.7429 33.8029 47.7429C26.7685 47.7429 21.0457 53.4657 21.0457 60.5V103.929C21.0457 130.12 42.3539 151.429 68.5457 151.429C94.7375 151.429 116.046 130.12 116.046 103.929V69.1857C116.046 62.1514 110.323 56.4286 103.289 56.4286Z" fill="#00D1FF"/>
<path id="Vector_4" d="M85.9171 108.543H94.6029V116.686H85.9171V108.543Z" fill="#00D1FF"/>
</g>
</g>
</g>
<defs>
<filter id="filter0_f_1_175" x="8.04572" y="0" width="121" height="164.429" filterUnits="userSpaceOnUse" color-interpolation-filters="sRGB">
<feFlood flood-opacity="0" result="BackgroundImageFix"/>
<feBlend mode="normal" in="SourceGraphic" in2="BackgroundImageFix" result="shape"/>
<feGaussianBlur stdDeviation="6.5" result="effect1_foregroundBlur_1_175"/>
</filter>
</defs>
</svg>
