<svg width="138" height="138" viewBox="0 0 138 138" fill="none" xmlns="http://www.w3.org/2000/svg">
<g id="Frame 6">
<g id="Group 5" opacity="0.4">
<g id="Group 1" filter="url(#filter0_f_1_176)">
<path id="Vector" d="M100.909 36.8171C100.909 30.3011 95.6075 25 89.0914 25C85.9853 25 83.1572 26.2064 81.0457 28.173C78.9342 26.2064 76.1061 25 73 25C69.8939 25 67.0658 26.2064 64.9543 28.173C62.8428 26.2064 60.0147 25 56.9086 25C51.3681 25 46.7081 28.8333 45.4364 33.9866C44.0168 33.3811 42.4555 33.0457 40.8171 33.0457C34.3011 33.0457 29 38.3468 29 44.8629V52.9086C29 59.4246 34.3011 64.7257 40.8171 64.7257C43.9233 64.7257 46.7514 63.5194 48.8629 61.5527C50.9744 63.5194 53.8024 64.7257 56.9086 64.7257C60.0147 64.7257 62.8428 63.5194 64.9543 61.5527C66.4478 62.9436 68.3003 63.9518 70.3565 64.424C64.725 69.5335 61.1829 76.9059 61.1829 85.0914H68.7257C68.7257 73.8616 77.8616 64.7257 89.0914 64.7257V57.1829H73C70.6431 57.1829 68.7257 55.2655 68.7257 52.9086C68.7257 50.5517 70.6431 48.6343 73 48.6343H101.411V73.0229C101.411 90.907 86.8613 105.457 68.9771 105.457C51.093 105.457 36.5429 90.907 36.5429 73.0229V69H29V73.0229C29 95.0661 46.9339 113 68.9771 113C91.0204 113 108.954 95.0661 108.954 73.0229V41.0914H100.909V36.8171ZM89.0914 32.5429C91.4483 32.5429 93.3657 34.4603 93.3657 36.8171V41.0914H84.8171V36.8171C84.8171 34.4603 86.7345 32.5429 89.0914 32.5429ZM40.8171 57.1829C38.4603 57.1829 36.5429 55.2655 36.5429 52.9086V44.8629C36.5429 42.506 38.4603 40.5886 40.8171 40.5886C43.174 40.5886 45.0914 42.506 45.0914 44.8629V52.9086C45.0914 55.2655 43.174 57.1829 40.8171 57.1829ZM56.9086 57.1829C54.5517 57.1829 52.6343 55.2655 52.6343 52.9086V36.8171C52.6343 34.4603 54.5517 32.5429 56.9086 32.5429C59.2655 32.5429 61.1829 34.4603 61.1829 36.8171V52.9086C61.1829 55.2655 59.2655 57.1829 56.9086 57.1829ZM68.7257 41.8945V36.8171C68.7257 34.4603 70.6431 32.5429 73 32.5429C75.3569 32.5429 77.2743 34.4603 77.2743 36.8171V41.0914H73C71.4929 41.0914 70.0523 41.3781 68.7257 41.8945Z" fill="#FFF6A2"/>
<path id="Vector_2" d="M81.0457 81.32H89.0914V88.8629H81.0457V81.32Z" fill="#FFF6A2"/>
</g>
<g id="Group 4">
<path id="Vector_3" d="M100.909 36.8171C100.909 30.3011 95.6075 25 89.0914 25C85.9853 25 83.1572 26.2064 81.0457 28.173C78.9342 26.2064 76.1061 25 73 25C69.8939 25 67.0658 26.2064 64.9543 28.173C62.8428 26.2064 60.0147 25 56.9086 25C51.3681 25 46.7081 28.8333 45.4364 33.9866C44.0168 33.3811 42.4555 33.0457 40.8171 33.0457C34.3011 33.0457 29 38.3468 29 44.8629V52.9086C29 59.4246 34.3011 64.7257 40.8171 64.7257C43.9233 64.7257 46.7514 63.5194 48.8629 61.5527C50.9744 63.5194 53.8024 64.7257 56.9086 64.7257C60.0147 64.7257 62.8428 63.5194 64.9543 61.5527C66.4478 62.9436 68.3003 63.9518 70.3565 64.424C64.725 69.5335 61.1829 76.9059 61.1829 85.0914H68.7257C68.7257 73.8616 77.8616 64.7257 89.0914 64.7257V57.1829H73C70.6431 57.1829 68.7257 55.2655 68.7257 52.9086C68.7257 50.5517 70.6431 48.6343 73 48.6343H101.411V73.0229C101.411 90.907 86.8613 105.457 68.9771 105.457C51.093 105.457 36.5429 90.907 36.5429 73.0229V69H29V73.0229C29 95.0661 46.9339 113 68.9771 113C91.0204 113 108.954 95.0661 108.954 73.0229V41.0914H100.909V36.8171ZM89.0914 32.5429C91.4483 32.5429 93.3657 34.4603 93.3657 36.8171V41.0914H84.8171V36.8171C84.8171 34.4603 86.7345 32.5429 89.0914 32.5429ZM40.8171 57.1829C38.4603 57.1829 36.5429 55.2655 36.5429 52.9086V44.8629C36.5429 42.506 38.4603 40.5886 40.8171 40.5886C43.174 40.5886 45.0914 42.506 45.0914 44.8629V52.9086C45.0914 55.2655 43.174 57.1829 40.8171 57.1829ZM56.9086 57.1829C54.5517 57.1829 52.6343 55.2655 52.6343 52.9086V36.8171C52.6343 34.4603 54.5517 32.5429 56.9086 32.5429C59.2655 32.5429 61.1829 34.4603 61.1829 36.8171V52.9086C61.1829 55.2655 59.2655 57.1829 56.9086 57.1829ZM68.7257 41.8945V36.8171C68.7257 34.4603 70.6431 32.5429 73 32.5429C75.3569 32.5429 77.2743 34.4603 77.2743 36.8171V41.0914H73C71.4929 41.0914 70.0523 41.3781 68.7257 41.8945Z" fill="#FFE600"/>
<path id="Vector_4" d="M81.0457 81.32H89.0914V88.8629H81.0457V81.32Z" fill="#FFE600"/>
</g>
</g>
</g>
<defs>
<filter id="filter0_f_1_176" x="16" y="12" width="105.954" height="114" filterUnits="userSpaceOnUse" color-interpolation-filters="sRGB">
<feFlood flood-opacity="0" result="BackgroundImageFix"/>
<feBlend mode="normal" in="SourceGraphic" in2="BackgroundImageFix" result="shape"/>
<feGaussianBlur stdDeviation="6.5" result="effect1_foregroundBlur_1_176"/>
</filter>
</defs>
</svg>
