<svg width="138" height="165" viewBox="0 0 138 165" fill="none" xmlns="http://www.w3.org/2000/svg">
<g id="Frame 4">
<g id="Group 9" opacity="0.4">
<g id="Group 2" filter="url(#filter0_f_1_199)">
<path id="Vector" d="M99.9339 74.3132L111.757 29.8044C113.556 23.0333 109.545 16.0455 102.817 14.2273C99.5606 13.3474 96.1582 13.7923 93.2348 15.4799C90.2903 17.18 88.186 19.9333 87.3095 23.2332L77.7856 59.0856L68.2618 23.2332C67.3852 19.9338 65.2809 17.1805 62.3364 15.4799C59.413 13.7923 56.0101 13.3469 52.7546 14.2273C46.0263 16.0455 42.015 23.0333 43.8137 29.8044L48.9752 49.2334L56.8293 47.1465L51.6678 27.7174C51.0144 25.2583 52.4534 22.7261 54.8746 22.0716C56.0275 21.7596 57.2351 21.9183 58.2726 22.517C59.3317 23.1286 60.0897 24.1233 60.4072 25.3185L73.4222 74.3127C71.8088 74.3165 70.2669 74.6242 68.8458 75.1773V69.707C68.8458 62.6867 63.1344 56.9754 56.1141 56.9754C50.1449 56.9754 45.1243 61.1053 43.7541 66.6574C42.2247 66.0051 40.5425 65.6437 38.7774 65.6437C31.7571 65.6437 26.0457 71.3551 26.0457 78.3754V108.715C26.0457 132.464 45.3675 151.786 69.1167 151.786C92.8659 151.786 112.188 132.464 112.188 108.715V74.3121H99.9339V74.3132ZM95.1635 25.3196C95.481 24.1244 96.239 23.1297 97.2981 22.5181C98.3362 21.9194 99.5432 21.7612 100.696 22.0727C103.117 22.7272 104.556 25.2594 103.903 27.7185L91.5255 74.3132H82.1485L95.1635 25.3196ZM51.5096 69.7081C51.5096 67.1688 53.5754 65.1031 56.1147 65.1031C58.654 65.1031 60.7198 67.1688 60.7198 69.7081V87.0449C60.7198 89.5842 58.654 91.65 56.1147 91.65C53.5754 91.65 51.5096 89.5842 51.5096 87.0449V69.7081ZM34.1729 78.3765C34.1729 75.8372 36.2386 73.7714 38.7779 73.7714C41.3172 73.7714 43.383 75.8372 43.383 78.3765V87.0449C43.383 89.5842 41.3172 91.65 38.7779 91.65C36.2386 91.65 34.1729 89.5842 34.1729 87.0449V78.3765ZM104.062 108.716C104.062 127.984 88.3854 143.66 69.1172 143.66C49.8491 143.66 34.1729 127.984 34.1729 108.716V98.9113C35.6021 99.4677 37.1542 99.7766 38.7779 99.7766C42.1245 99.7766 45.1714 98.4768 47.4463 96.358C49.7212 98.4768 52.7681 99.7766 56.1147 99.7766C59.4612 99.7766 62.5081 98.4768 64.7831 96.358C66.3921 97.8565 68.388 98.9428 70.6033 99.4515C64.536 104.956 60.7198 112.9 60.7198 121.718H68.8464C68.8464 109.619 78.6893 99.7766 90.7882 99.7766V91.65H73.4514C70.9121 91.65 68.8464 89.5842 68.8464 87.0449C68.8464 84.5056 70.9121 82.4398 73.4514 82.4398H104.062V108.716Z" fill="#FF6BA0"/>
<path id="Vector_2" d="M82.1198 117.809H90.7882V125.936H82.1198V117.809Z" fill="#FF6BA0"/>
</g>
<g id="Group 7">
<path id="Vector_3" d="M99.9339 74.3132L111.757 29.8044C113.556 23.0333 109.545 16.0455 102.817 14.2273C99.5606 13.3474 96.1582 13.7923 93.2348 15.4799C90.2903 17.18 88.186 19.9333 87.3095 23.2332L77.7856 59.0856L68.2618 23.2332C67.3852 19.9338 65.2809 17.1805 62.3364 15.4799C59.413 13.7923 56.0101 13.3469 52.7546 14.2273C46.0263 16.0455 42.015 23.0333 43.8137 29.8044L48.9752 49.2334L56.8293 47.1465L51.6678 27.7174C51.0144 25.2583 52.4534 22.7261 54.8746 22.0716C56.0275 21.7596 57.2351 21.9183 58.2726 22.517C59.3317 23.1286 60.0897 24.1233 60.4072 25.3185L73.4222 74.3127C71.8088 74.3165 70.2669 74.6242 68.8458 75.1773V69.707C68.8458 62.6867 63.1344 56.9754 56.1141 56.9754C50.1449 56.9754 45.1243 61.1053 43.7541 66.6574C42.2247 66.0051 40.5425 65.6437 38.7774 65.6437C31.7571 65.6437 26.0457 71.3551 26.0457 78.3754V108.715C26.0457 132.464 45.3675 151.786 69.1167 151.786C92.8659 151.786 112.188 132.464 112.188 108.715V74.3121H99.9339V74.3132ZM95.1635 25.3196C95.481 24.1244 96.239 23.1297 97.2981 22.5181C98.3362 21.9194 99.5432 21.7612 100.696 22.0727C103.117 22.7272 104.556 25.2594 103.903 27.7185L91.5255 74.3132H82.1485L95.1635 25.3196ZM51.5096 69.7081C51.5096 67.1688 53.5754 65.1031 56.1147 65.1031C58.654 65.1031 60.7198 67.1688 60.7198 69.7081V87.0449C60.7198 89.5842 58.654 91.65 56.1147 91.65C53.5754 91.65 51.5096 89.5842 51.5096 87.0449V69.7081ZM34.1729 78.3765C34.1729 75.8372 36.2386 73.7714 38.7779 73.7714C41.3172 73.7714 43.383 75.8372 43.383 78.3765V87.0449C43.383 89.5842 41.3172 91.65 38.7779 91.65C36.2386 91.65 34.1729 89.5842 34.1729 87.0449V78.3765ZM104.062 108.716C104.062 127.984 88.3854 143.66 69.1172 143.66C49.8491 143.66 34.1729 127.984 34.1729 108.716V98.9113C35.6021 99.4677 37.1542 99.7766 38.7779 99.7766C42.1245 99.7766 45.1714 98.4768 47.4463 96.358C49.7212 98.4768 52.7681 99.7766 56.1147 99.7766C59.4612 99.7766 62.5081 98.4768 64.7831 96.358C66.3921 97.8565 68.388 98.9428 70.6033 99.4515C64.536 104.956 60.7198 112.9 60.7198 121.718H68.8464C68.8464 109.619 78.6893 99.7766 90.7882 99.7766V91.65H73.4514C70.9121 91.65 68.8464 89.5842 68.8464 87.0449C68.8464 84.5056 70.9121 82.4398 73.4514 82.4398H104.062V108.716Z" fill="#FF005C"/>
<path id="Vector_4" d="M82.1198 117.809H90.7882V125.936H82.1198V117.809Z" fill="#FF005C"/>
</g>
</g>
</g>
<defs>
<filter id="filter0_f_1_199" x="13.0457" y="0.785706" width="112.142" height="164" filterUnits="userSpaceOnUse" color-interpolation-filters="sRGB">
<feFlood flood-opacity="0" result="BackgroundImageFix"/>
<feBlend mode="normal" in="SourceGraphic" in2="BackgroundImageFix" result="shape"/>
<feGaussianBlur stdDeviation="6.5" result="effect1_foregroundBlur_1_199"/>
</filter>
</defs>
</svg>
